<?xml version="1.0" encoding="utf-8"?>
<!-- Generator: Adobe Illustrator 16.0.3, SVG Export Plug-In . SVG Version: 6.00 Build 0)  -->
<!DOCTYPE svg PUBLIC "-//W3C//DTD SVG 1.1//EN" "http://www.w3.org/Graphics/SVG/1.1/DTD/svg11.dtd">
<svg version="1.1" id="Layer_1" xmlns="http://www.w3.org/2000/svg" xmlns:xlink="http://www.w3.org/1999/xlink" x="0px" y="0px"
	 width="76.002px" height="76px" viewBox="0 0 76.002 76" enable-background="new 0 0 76.002 76" xml:space="preserve">
<g>
	<defs>
		<rect id="SVGID_1_" width="76.002" height="76"/>
	</defs>
	<clipPath id="SVGID_2_">
		<use xlink:href="#SVGID_1_"  overflow="visible"/>
	</clipPath>
	<path clip-path="url(#SVGID_2_)" fill="#FFFFFF" d="M76.002,38c0,20.986-17.013,38-38,38C17.01,76,0,58.986,0,38
		C0,17.016,17.01,0,38.002,0C58.989,0,76.002,17.016,76.002,38"/>
	<path clip-path="url(#SVGID_2_)" fill="#1D4F91" d="M38.005,13.232c-13.616,0-24.652,11.034-24.652,24.637
		c0,13.613,11.036,24.648,24.649,24.648c13.609,0,24.642-11.035,24.642-24.648C62.645,24.266,51.612,13.231,38.005,13.232
		 M38.003,62.014c-13.339,0.005-24.148-10.807-24.148-24.145c0-13.327,10.809-24.137,24.148-24.137
		c13.333,0,24.144,10.811,24.144,24.137C62.146,51.207,51.336,62.014,38.003,62.014 M11.442,43.101
		c-0.049-0.242-0.116-0.456-0.203-0.653c-0.083-0.196-0.203-0.355-0.348-0.483c-0.127-0.115-0.274-0.203-0.442-0.259
		c-0.251-0.094-0.517-0.112-0.797-0.056c-0.27,0.056-0.49,0.167-0.652,0.328c-0.163,0.162-0.272,0.371-0.309,0.634
		c-0.111-0.146-0.223-0.246-0.342-0.309c-0.203-0.108-0.45-0.134-0.741-0.07c-0.28,0.058-0.507,0.178-0.676,0.366
		c-0.274,0.309-0.363,0.749-0.251,1.327l0.474,2.283l4.727-0.977L11.442,43.101z M7.786,45.097L7.571,44.07
		c-0.051-0.227-0.062-0.42-0.048-0.574c0.043-0.185,0.166-0.303,0.391-0.344c0.196-0.043,0.354-0.007,0.453,0.104
		c0.106,0.108,0.179,0.269,0.221,0.478l0.239,1.145L7.786,45.097z M9.604,44.716l-0.242-1.159c-0.036-0.202-0.041-0.365-0.012-0.489
		c0.049-0.22,0.197-0.357,0.441-0.406c0.29-0.06,0.508,0.004,0.657,0.188c0.078,0.103,0.138,0.257,0.184,0.462l0.236,1.147
		L9.604,44.716z M8.488,39.708c0.862,0.018,1.532-0.219,1.999-0.699c0.384-0.359,0.58-0.882,0.589-1.573
		c0.013-0.69-0.168-1.22-0.538-1.591c-0.454-0.492-1.112-0.749-1.976-0.761c-0.886-0.016-1.55,0.218-2.007,0.695
		c-0.376,0.358-0.576,0.883-0.589,1.57c-0.006,0.696,0.17,1.223,0.538,1.596C6.942,39.44,7.602,39.697,8.488,39.708 M7.281,36.424
		c0.3-0.23,0.719-0.343,1.261-0.333c0.547,0.008,0.964,0.133,1.25,0.372c0.293,0.238,0.438,0.56,0.43,0.958
		c-0.006,0.401-0.16,0.719-0.456,0.948c-0.299,0.236-0.719,0.348-1.267,0.339c-0.541-0.012-0.958-0.134-1.25-0.378
		c-0.29-0.241-0.43-0.561-0.426-0.96C6.831,36.966,6.985,36.652,7.281,36.424 M9.719,28.683l2.515,0.616l-0.158,0.651l-0.61-0.043
		c0.174,0.241,0.29,0.449,0.344,0.625c0.094,0.293,0.094,0.631,0,1.012c-0.152,0.619-0.493,1.076-1.018,1.366
		c-0.535,0.305-1.175,0.368-1.925,0.183c-0.761-0.183-1.317-0.543-1.67-1.075c-0.356-0.528-0.448-1.135-0.281-1.825
		c0.148-0.598,0.416-1.037,0.806-1.323c0.39-0.288,0.819-0.402,1.285-0.345l-0.24,0.963c-0.334-0.002-0.607,0.122-0.804,0.379
		c-0.112,0.141-0.19,0.317-0.238,0.514c-0.088,0.377-0.028,0.722,0.198,1.034c0.224,0.314,0.625,0.54,1.194,0.679
		c0.577,0.142,1.015,0.109,1.324-0.094c0.298-0.205,0.491-0.474,0.576-0.805c0.079-0.33,0.047-0.623-0.085-0.88
		c-0.136-0.254-0.351-0.447-0.646-0.571l-0.263,1.085l-0.786-0.194L9.719,28.683z M6.115,30.818c-0.2,0.151-0.465,0.2-0.797,0.148
		l0.103-0.428c0.205,0.018,0.362-0.049,0.477-0.209c0.063-0.087,0.115-0.202,0.145-0.344c0.036-0.146,0.043-0.272,0.031-0.38
		c-0.027-0.191-0.135-0.324-0.32-0.402l0.102-0.43c0.321,0.108,0.535,0.275,0.638,0.502c0.111,0.227,0.123,0.504,0.044,0.827
		C6.457,30.428,6.317,30.67,6.115,30.818 M14.31,24.724l0.492-0.979l-5.085-0.622l-0.507,1.018l3.549,3.698l0.473-0.945L12.49,26.16
		l0.791-1.59L14.31,24.724z M11.868,25.544l-1.423-1.412l1.973,0.306L11.868,25.544z M12.398,20.241l-0.675-0.527l2.25-2.884
		l0.637,0.497l0.965,3.92l1.537-1.977l0.673,0.523l-2.292,2.938l-0.673-0.522l-0.942-3.865L12.398,20.241z M15.303,14.708
		l-0.534-0.563l0.615-0.592l0.538,0.564L15.303,14.708z M15.623,15.155l0.725-0.691l3.333,3.491l-0.729,0.693L15.623,15.155z
		 M19.596,14.81c-0.483-0.693-0.665-1.357-0.559-1.984c0.097-0.549,0.39-0.992,0.889-1.333c0.662-0.457,1.298-0.569,1.906-0.339
		c0.339,0.129,0.599,0.314,0.783,0.555l-0.833,0.572c-0.182-0.158-0.345-0.253-0.503-0.293c-0.262-0.071-0.543-0.007-0.833,0.194
		c-0.296,0.203-0.444,0.488-0.45,0.846c-0.002,0.362,0.148,0.766,0.455,1.212c0.307,0.444,0.626,0.717,0.963,0.816
		c0.333,0.097,0.639,0.051,0.911-0.142c0.291-0.194,0.442-0.441,0.46-0.734c0.011-0.158-0.027-0.358-0.112-0.601l0.824-0.57
		c0.227,0.48,0.288,0.96,0.181,1.434c-0.104,0.475-0.361,0.852-0.776,1.134l0.002,0.356c0.052-0.054,0.086-0.092,0.112-0.113
		c0.022-0.022,0.046-0.042,0.073-0.063c0.147-0.101,0.288-0.146,0.42-0.131c0.139,0.01,0.25,0.084,0.345,0.215
		c0.111,0.166,0.132,0.344,0.065,0.533c-0.065,0.187-0.211,0.357-0.423,0.502c-0.089,0.063-0.211,0.119-0.369,0.17
		c-0.075,0.024-0.177,0.051-0.311,0.088l-0.059-0.303c0.125-0.04,0.207-0.07,0.251-0.086c0.104-0.038,0.182-0.075,0.234-0.113
		c0.108-0.074,0.169-0.15,0.184-0.225c0.018-0.079,0.008-0.143-0.031-0.194c-0.052-0.078-0.111-0.11-0.184-0.106
		c-0.073,0.003-0.14,0.027-0.2,0.069c-0.033,0.024-0.07,0.052-0.099,0.084c-0.027,0.034-0.064,0.073-0.097,0.117l-0.188-0.028
		l-0.023-0.57c-0.42,0.29-0.912,0.363-1.493,0.217C20.542,15.848,20.034,15.452,19.596,14.81 M23.769,8.726l-0.33-0.703l0.769-0.364
		l0.335,0.703L23.769,8.726z M23.933,9.253l0.903-0.433l2.067,4.366l-0.909,0.432L23.933,9.253z M32.694,5.976l-0.133-0.765
		l0.841-0.145l0.138,0.762L32.694,5.976z M31.401,6.199l-0.13-0.765l0.841-0.146l0.135,0.763L31.401,6.199z M31.141,9.712
		l-0.507-2.923l1.012-0.176l0.504,2.922c0.057,0.329,0.136,0.557,0.239,0.692c0.169,0.247,0.453,0.335,0.855,0.267
		c0.404-0.07,0.641-0.25,0.713-0.535c0.051-0.164,0.051-0.414-0.01-0.739l-0.51-2.92l1.015-0.176l0.51,2.922
		c0.083,0.509,0.075,0.916-0.034,1.225c-0.205,0.57-0.715,0.923-1.537,1.065c-0.821,0.144-1.428-0.02-1.811-0.485
		C31.377,10.6,31.229,10.218,31.141,9.712 M38.105,10.8l-0.936-0.037l0.19-4.823l1.054,0.041L40.2,9.42l0.132-3.366l0.937,0.042
		l-0.19,4.823l-1.006-0.041l-1.828-3.5L38.105,10.8z M44.894,6.179L44.058,6.01l0.154-0.763l0.836,0.171L44.894,6.179z
		 M43.895,11.455l-0.981-0.198l0.958-4.731l0.979,0.2L43.895,11.455z M47.874,12.67l-0.894-0.333l0.151-5.092l1.007,0.374
		l-0.29,3.801l2.262-3.068l0.988,0.364L47.874,12.67z M50.817,13.981l2.549-4.102l3.005,1.868l-0.453,0.724l-2.166-1.346
		l-0.545,0.87l1.994,1.237l-0.441,0.713l-1.994-1.237l-0.651,1.053l2.266,1.41l-0.456,0.737L50.817,13.981z M56.023,17.67
		l1.305-1.372l0.713,0.68c0.203,0.195,0.307,0.365,0.307,0.508c0.007,0.146-0.096,0.331-0.307,0.557l-0.308,0.33
		c-0.091,0.102-0.182,0.214-0.255,0.33c-0.032,0.056-0.081,0.131-0.127,0.233l0.802,0.767l0.084-0.087
		c-0.027-0.111-0.009-0.221,0.055-0.328c0.043-0.071,0.14-0.185,0.293-0.344l0.226-0.234c0.23-0.246,0.369-0.458,0.417-0.643
		c0.045-0.183,0.019-0.382-0.081-0.602c0.259,0.119,0.504,0.139,0.74,0.057c0.236-0.081,0.434-0.207,0.592-0.371
		c0.132-0.137,0.227-0.28,0.284-0.428c0.064-0.149,0.1-0.306,0.109-0.462c0.012-0.192-0.018-0.376-0.097-0.557
		c-0.076-0.177-0.23-0.382-0.465-0.615l-1.669-1.595l-3.332,3.493L56.023,17.67z M58.775,14.786l0.807,0.768
		c0.148,0.141,0.241,0.271,0.277,0.381c0.067,0.201-0.002,0.41-0.208,0.619c-0.188,0.197-0.378,0.263-0.58,0.197
		c-0.114-0.035-0.252-0.13-0.405-0.279l-0.79-0.749L58.775,14.786z M60.656,21.309c-0.065,0.25,0.016,0.543,0.249,0.875
		c0.135,0.202,0.268,0.351,0.395,0.445c0.242,0.177,0.484,0.192,0.708,0.039c0.132-0.094,0.193-0.221,0.187-0.386
		c-0.013-0.164-0.08-0.39-0.197-0.679l-0.199-0.493c-0.203-0.49-0.299-0.852-0.296-1.085c-0.003-0.392,0.191-0.725,0.583-0.993
		c0.354-0.244,0.74-0.318,1.156-0.218c0.417,0.099,0.799,0.405,1.146,0.913c0.292,0.424,0.432,0.86,0.416,1.314
		c-0.018,0.451-0.233,0.833-0.643,1.137l-0.551-0.799c0.23-0.182,0.327-0.404,0.291-0.672c-0.026-0.177-0.106-0.368-0.242-0.564
		c-0.148-0.221-0.314-0.365-0.493-0.436c-0.175-0.073-0.338-0.054-0.499,0.052c-0.138,0.097-0.202,0.236-0.184,0.415
		c0.015,0.114,0.079,0.328,0.206,0.64l0.314,0.812c0.133,0.357,0.199,0.653,0.184,0.885c-0.024,0.366-0.215,0.671-0.565,0.914
		c-0.367,0.25-0.764,0.319-1.2,0.202c-0.432-0.112-0.828-0.429-1.179-0.939c-0.358-0.525-0.524-1.019-0.496-1.481
		c0.031-0.463,0.251-0.836,0.663-1.121l0.55,0.792C60.799,21.029,60.693,21.172,60.656,21.309 M67.415,24.202l-0.371-0.771
		l0.701-0.335l0.371,0.768L67.415,24.202z M62.174,25.692l4.347-2.098l0.434,0.903l-4.347,2.097L62.174,25.692z M67.797,29.166
		l-3.792,1.181l-0.303-0.973l3.795-1.177l-0.433-1.386l0.82-0.252l1.156,3.734l-0.813,0.25L67.797,29.166z M64.725,33.277
		l4.801-0.517l0.377,3.521l-0.849,0.09l-0.275-2.537l-1.018,0.107l0.251,2.333l-0.835,0.086l-0.25-2.329l-1.23,0.134l0.283,2.651
		l-0.868,0.093L64.725,33.277z M69.063,40.674c0.027-0.263-0.009-0.48-0.098-0.649c-0.086-0.166-0.226-0.257-0.414-0.275
		c-0.171-0.018-0.311,0.05-0.405,0.198c-0.067,0.096-0.151,0.304-0.257,0.621l-0.281,0.825c-0.114,0.361-0.259,0.628-0.422,0.801
		c-0.252,0.266-0.593,0.377-1.021,0.338c-0.438-0.039-0.789-0.242-1.046-0.611c-0.262-0.364-0.363-0.857-0.304-1.477
		c0.06-0.634,0.244-1.118,0.563-1.453c0.32-0.339,0.729-0.482,1.231-0.439l-0.088,0.96c-0.223,0.014-0.392,0.055-0.511,0.137
		c-0.211,0.149-0.335,0.427-0.377,0.831c-0.018,0.241-0.01,0.438,0.027,0.596c0.073,0.294,0.249,0.455,0.521,0.48
		c0.156,0.016,0.287-0.045,0.39-0.179c0.094-0.131,0.19-0.347,0.284-0.645l0.164-0.51c0.156-0.498,0.312-0.843,0.465-1.019
		c0.248-0.305,0.611-0.438,1.085-0.393c0.426,0.039,0.77,0.231,1.027,0.574c0.256,0.343,0.357,0.819,0.3,1.437
		c-0.046,0.511-0.22,0.937-0.523,1.274c-0.302,0.337-0.707,0.489-1.218,0.462l0.085-0.963c0.293,0.009,0.507-0.103,0.652-0.333
		C68.987,41.108,69.045,40.912,69.063,40.674 M64.375,43.987l4.679,1.177l-0.244,0.973l-4.685-1.175L64.375,43.987z M70.313,45.563
		l-0.208,0.827l-0.755-0.191l0.212-0.827L70.313,45.563z M29.352,63.525l0.752,0.25l-1.524,4.578l-0.919-0.309l1.049-3.157
		l-1.077-0.356l0.205-0.617c0.285,0.089,0.491,0.133,0.615,0.143c0.193,0.021,0.364-0.01,0.517-0.091
		c0.109-0.058,0.202-0.148,0.289-0.272C29.308,63.618,29.34,63.561,29.352,63.525 M35.056,64.752
		c-0.48-0.051-0.863,0.029-1.153,0.25c-0.29,0.218-0.454,0.501-0.494,0.849c-0.014,0.159,0,0.327,0.053,0.517
		c0.054,0.186,0.187,0.371,0.402,0.548c-0.246,0.084-0.444,0.231-0.59,0.437c-0.143,0.207-0.226,0.441-0.257,0.711
		c-0.046,0.406,0.057,0.764,0.302,1.073c0.249,0.316,0.638,0.498,1.176,0.558c0.535,0.059,0.969-0.042,1.299-0.294
		c0.33-0.248,0.514-0.579,0.556-0.981c0.031-0.267-0.003-0.519-0.096-0.752c-0.102-0.229-0.257-0.421-0.483-0.582
		c0.247-0.106,0.413-0.244,0.501-0.418c0.091-0.173,0.142-0.338,0.158-0.495c0.042-0.343-0.059-0.657-0.3-0.933
		C35.894,64.963,35.537,64.799,35.056,64.752 M35.383,68.253c-0.021,0.233-0.104,0.411-0.238,0.529
		c-0.136,0.117-0.312,0.164-0.529,0.142c-0.216-0.024-0.38-0.108-0.487-0.251c-0.108-0.143-0.153-0.332-0.126-0.566
		c0.031-0.249,0.109-0.425,0.249-0.539c0.135-0.112,0.314-0.156,0.525-0.135c0.212,0.022,0.371,0.104,0.48,0.241
		C35.371,67.815,35.41,68.006,35.383,68.253 M35.516,66.18c-0.018,0.175-0.083,0.313-0.205,0.411
		c-0.115,0.097-0.268,0.141-0.463,0.122c-0.189-0.025-0.332-0.094-0.428-0.216c-0.096-0.125-0.133-0.267-0.112-0.446
		c0.016-0.189,0.083-0.333,0.205-0.426c0.117-0.096,0.275-0.133,0.465-0.114c0.189,0.023,0.332,0.094,0.429,0.207
		C35.498,65.841,35.537,65.994,35.516,66.18 M42.317,66.772c-0.299-0.26-0.665-0.368-1.094-0.321
		c-0.192,0.021-0.368,0.066-0.517,0.15c-0.147,0.077-0.275,0.194-0.375,0.343c-0.009-0.371,0.005-0.654,0.055-0.854
		c0.099-0.356,0.298-0.554,0.607-0.584c0.203-0.024,0.362,0.035,0.48,0.179c0.07,0.086,0.109,0.166,0.118,0.241l0.937-0.096
		c-0.073-0.376-0.249-0.665-0.54-0.867c-0.291-0.2-0.657-0.275-1.104-0.229c-0.309,0.031-0.563,0.13-0.773,0.296
		c-0.205,0.161-0.363,0.369-0.478,0.612c-0.129,0.291-0.203,0.642-0.215,1.057c-0.006,0.234,0.01,0.53,0.049,0.899
		c0.067,0.621,0.23,1.119,0.493,1.493c0.34,0.472,0.813,0.677,1.417,0.614c0.562-0.06,0.957-0.271,1.193-0.644
		c0.23-0.371,0.317-0.779,0.272-1.223C42.794,67.386,42.62,67.032,42.317,66.772 M41.779,68.65c-0.104,0.168-0.26,0.265-0.465,0.285
		c-0.217,0.024-0.402-0.036-0.558-0.188c-0.158-0.148-0.245-0.353-0.275-0.61c-0.033-0.318,0.037-0.56,0.206-0.724
		c0.111-0.109,0.252-0.174,0.411-0.192c0.2-0.021,0.375,0.036,0.529,0.174c0.151,0.135,0.239,0.34,0.273,0.62
		C41.921,68.271,41.882,68.476,41.779,68.65 M49.101,66.297c0.129,0.387,0.109,0.771-0.064,1.158
		c-0.169,0.382-0.519,0.66-1.045,0.831c-0.65,0.216-1.17,0.15-1.56-0.187c-0.208-0.183-0.379-0.455-0.513-0.813l0.885-0.292
		c0.057,0.183,0.14,0.325,0.239,0.424c0.178,0.185,0.417,0.234,0.704,0.14c0.176-0.064,0.312-0.173,0.402-0.337
		c0.091-0.167,0.101-0.361,0.024-0.589c-0.1-0.301-0.289-0.462-0.564-0.483c-0.158-0.008-0.388,0.03-0.683,0.13l-0.215-0.639
		c0.293-0.104,0.487-0.199,0.587-0.29c0.168-0.154,0.208-0.367,0.117-0.634c-0.057-0.177-0.153-0.305-0.292-0.38
		c-0.133-0.075-0.3-0.08-0.484-0.021c-0.211,0.07-0.348,0.187-0.399,0.355c-0.057,0.166-0.042,0.367,0.034,0.587l-0.841,0.277
		c-0.067-0.226-0.099-0.459-0.099-0.685c0.018-0.203,0.079-0.405,0.188-0.607c0.078-0.148,0.192-0.278,0.335-0.388
		c0.146-0.111,0.332-0.205,0.568-0.282c0.438-0.144,0.829-0.146,1.172-0.014c0.345,0.144,0.577,0.402,0.704,0.778
		c0.088,0.273,0.085,0.528-0.014,0.767c-0.061,0.148-0.14,0.261-0.236,0.338c0.081-0.023,0.221,0.005,0.418,0.093
		C48.769,65.678,48.979,65.926,49.101,66.297 M11.783,50.999c-0.273,0.492-0.894,0.671-1.39,0.395
		c-0.49-0.269-0.665-0.892-0.392-1.384c0.271-0.489,0.885-0.673,1.384-0.396C11.879,49.878,12.059,50.5,11.783,50.999 M66.12,50.321
		c0.093,0.554-0.278,1.082-0.834,1.177c-0.553,0.097-1.077-0.271-1.171-0.832c-0.106-0.552,0.265-1.082,0.83-1.179
		C65.498,49.391,66.026,49.767,66.12,50.321 M38.003,73.171c-19.503,0-35.306-15.8-35.306-35.299
		c0-19.494,15.803-35.299,35.306-35.299c19.494,0,35.298,15.805,35.298,35.299C73.301,57.371,57.497,73.171,38.003,73.171
		 M72.8,37.872c0-19.217-15.579-34.797-34.797-34.797c-19.225,0-34.807,15.581-34.807,34.797c0,19.221,15.582,34.801,34.807,34.801
		C57.221,72.673,72.8,57.093,72.8,37.872"/>
	<path clip-path="url(#SVGID_2_)" fill="#1D4F91" d="M38.002,16.538L16.659,37.869l7.444,0.003c0,6.307,5.113,11.412,11.417,11.412
		c6.304,0,11.417-5.105,11.417-11.415l-17.87,0.003c0-6.304,5.113-11.411,11.42-11.411c6.301,0,11.415,5.107,11.415,11.408h7.441
		L38.002,16.538z"/>
	<path clip-path="url(#SVGID_2_)" fill="#7CCBEE" d="M51.901,37.869c0-6.301-5.112-11.408-11.415-11.408
		c-6.305,0-11.417,5.107-11.417,11.408l17.868,0.003c0,6.307-5.113,11.413-11.417,11.413c-6.302,0-11.415-5.112-11.415-11.416H16.66
		l21.346,21.34l21.337-21.337L51.901,37.869z"/>
</g>
<g>
</g>
<g>
</g>
<g>
</g>
<g>
</g>
<g>
</g>
<g>
</g>
<g>
</g>
<g>
</g>
<g>
</g>
<g>
</g>
<g>
</g>
<g>
</g>
<g>
</g>
<g>
</g>
<g>
</g>
</svg>
